<svg width="88" height="88" viewBox="0 0 88 88" fill="none" xmlns="http://www.w3.org/2000/svg">
<path fill-rule="evenodd" clip-rule="evenodd" d="M54.6667 55.1415C54.4755 55.1415 54.3333 55.2039 54.2327 55.3336C54.1238 55.475 54.0689 55.687 54.0689 55.963C54.0689 56.2108 54.1246 56.3979 54.2352 56.5209C54.3425 56.6415 54.4946 56.6989 54.7008 56.6989C54.9095 56.6989 55.0625 56.6407 55.1698 56.5201C55.2804 56.3954 55.3369 56.2075 55.3369 55.963C55.3369 55.692 55.277 55.4799 55.1581 55.3394C55.0459 55.2056 54.8846 55.1415 54.6667 55.1415Z" fill="#00679C"/>
<path fill-rule="evenodd" clip-rule="evenodd" d="M51.0007 53.0539C50.7937 53.0539 50.6416 53.1146 50.5343 53.241C50.422 53.3724 50.3647 53.5703 50.3647 53.828C50.3647 54.0883 50.422 54.2854 50.5343 54.4176C50.6416 54.5439 50.7937 54.6046 51.0007 54.6046C51.207 54.6046 51.3583 54.5431 51.4647 54.4176C51.5761 54.2837 51.6327 54.085 51.6327 53.828V53.8239C51.6327 53.5686 51.5761 53.3724 51.4639 53.241C51.3566 53.1146 51.2053 53.0539 51.0007 53.0539Z" fill="#00679C"/>
<path fill-rule="evenodd" clip-rule="evenodd" d="M60.4154 56.012C60.4154 56.5051 60.2766 56.8967 60.003 57.1769C59.7278 57.4588 59.3295 57.6018 58.819 57.6018C58.3051 57.6018 57.906 57.458 57.6325 57.1753C57.3606 56.8942 57.2226 56.5026 57.2226 56.012V53.7313C57.2226 53.2374 57.3614 52.845 57.635 52.5648C57.9102 52.2837 58.3085 52.1416 58.819 52.1416C59.332 52.1416 59.7303 52.2837 60.0047 52.5639C60.2774 52.8425 60.4154 53.2349 60.4154 53.7313V56.012ZM56.0868 56.8036C55.9629 57.0638 55.7791 57.2651 55.5397 57.4006C55.3052 57.5336 55.0225 57.6018 54.7007 57.6018C54.379 57.6018 54.0971 57.5345 53.8643 57.4023C53.6256 57.2676 53.4427 57.0688 53.3188 56.8136C53.1991 56.565 53.1392 56.2656 53.1392 55.9222C53.1392 55.7244 53.1617 55.5157 53.2082 55.3003C53.254 55.0841 53.3205 54.8704 53.407 54.6642C53.4211 54.6293 53.4377 54.5919 53.4552 54.5545L53.5043 54.4547L54.6409 52.2031H55.6677L54.6176 54.2535C54.6799 54.2435 54.7448 54.2385 54.8113 54.2385C55.1123 54.2385 55.3751 54.3059 55.5937 54.4389C55.8149 54.5736 55.9854 54.7698 56.1001 55.0251C56.2107 55.2687 56.2664 55.5639 56.2664 55.9015C56.2664 56.2498 56.2065 56.5517 56.0868 56.8036ZM52.4899 54.483C52.4416 54.695 52.3726 54.9087 52.2837 55.1174C52.2679 55.1515 52.2554 55.1806 52.2413 55.2105C52.2255 55.2454 52.2088 55.2795 52.1905 55.3128L51.0789 57.5503H50.0528L51.1063 55.4716C51.0273 55.4832 50.9433 55.4899 50.8552 55.4899C50.5767 55.4899 50.3247 55.4192 50.1094 55.2804C49.894 55.1423 49.7252 54.9461 49.6072 54.6967C49.4933 54.453 49.4342 54.1703 49.4342 53.8552C49.4342 53.5035 49.4949 53.2009 49.6147 52.9489C49.7377 52.6895 49.9215 52.4891 50.1618 52.3528C50.3962 52.2189 50.6789 52.1515 51.0007 52.1515C51.3225 52.1515 51.6052 52.2206 51.8388 52.3569C52.0766 52.4958 52.2595 52.6986 52.3826 52.9597C52.5023 53.2133 52.563 53.5193 52.563 53.8694C52.563 54.0631 52.5381 54.2685 52.4899 54.483ZM48.3758 57.5503H47.4454V53.2574L46.628 53.7646V52.756L47.457 52.2031H48.3758V57.5503ZM55.1547 39.5656C53.0719 38.207 51.2668 38.1147 51.2668 38.1147C49.7859 37.97 48.5653 38.3866 48.5653 38.3866C47.3447 38.7699 46.6762 39.3943 46.6762 39.3943C46.5889 39.4667 46.3935 39.6014 46.3935 39.6014C46.1524 39.7544 45.8714 39.8259 45.8714 39.8259C45.1771 40.0105 44.6084 39.3785 44.6084 39.3785C44.1236 38.8689 44.2667 38.2303 44.2667 38.2303C44.3481 37.7929 44.7822 37.3523 44.7822 37.3523C46.0684 35.8664 48.7341 35.4075 49.4484 35.3093C49.5623 35.2927 49.6263 35.2861 49.6263 35.2861C54.0896 34.9269 56.5258 37.9318 56.5258 37.9318C59.7594 41.6534 62.7967 40.965 62.7967 40.965C59.5232 43.0403 55.1547 39.5656 55.1547 39.5656ZM80.443 34.3773C79.3546 30.2474 73.5676 27.8095 65.282 27.2915C61.1937 22.0915 55.2004 18.3699 48.1463 17.2856C38.8596 15.8572 29.9521 19.3393 24.0595 25.794C24.8411 25.2486 25.3849 25.0083 25.3849 25.0083C28.9593 23.1882 33.268 24.2974 33.268 24.2974C35.4739 24.8545 37.3829 26.0044 38.8638 27.5351C40.7479 29.7593 41.6159 32.7651 40.9325 35.829C40.9117 35.9213 40.8809 36.0568 40.8568 36.1458C40.1908 38.6502 38.0082 42.2671 33.5457 42.968C35.276 42.3219 37.6473 40.0653 38.0947 37.6117C38.828 33.5915 36.4716 29.6678 32.4806 28.7782C28.4921 27.8885 24.5235 30.3979 23.6479 34.3889C22.9869 37.4021 24.3015 40.0312 25.1994 41.2036C25.1994 41.2036 26.3361 42.8965 27.8294 43.9508C27.8294 43.9508 31.0671 46.3961 35.0282 46.4086C35.0282 46.4086 39.5805 46.7586 44.4379 43.7762C44.4404 43.7745 44.4463 43.7703 44.4496 43.7679C51.2077 39.2596 58.2262 43.7554 58.2262 43.7554C64.537 47.4305 68.4823 45.3743 68.4823 45.3743C64.8513 49.8825 58.5496 46.7819 58.5496 46.7819C51.6035 43.614 47.6283 46.2914 47.6283 46.2914C42.6519 49.4102 38.897 50.0363 38.897 50.0363C26.81 52.0775 20.9947 43.9807 20.9947 43.9807C18.3116 40.3514 18.6242 35.7375 18.6242 35.7375C18.6417 35.2977 18.6824 34.8795 18.7365 34.482C18.0929 36.1998 17.6131 38.0083 17.3238 39.8916C16.9804 42.1265 16.923 44.3374 17.1209 46.4917C17.1209 46.4917 21.995 54.2776 34.96 53.4378L34.22 53.5617C33.3212 53.7105 31.9784 53.8178 31.9784 53.8178C27.871 54.2069 21.8428 54.3316 16.9979 52.6014C14.3846 51.6701 12.6751 50.2791 12.1945 48.4548C11.5958 46.1816 12.9844 43.5567 15.8529 40.9259C9.79402 45.1947 6.54382 49.7669 7.55654 53.6099C8.64743 57.7523 14.4652 60.1918 22.7899 60.7015C26.8782 65.904 32.8731 69.6298 39.9306 70.7149C54.6849 72.9831 68.4848 62.8617 70.753 48.1073C71.459 43.5168 70.9651 39.0177 69.505 34.9302C72.9639 35.8315 75.2371 37.3797 75.805 39.5332C76.4037 41.8064 75.016 44.4314 72.1466 47.0605C78.2055 42.7925 81.4557 38.2203 80.443 34.3773Z" fill="#00679C"/>
<path fill-rule="evenodd" clip-rule="evenodd" d="M58.8192 53.0361C58.5839 53.0361 58.4126 53.0918 58.3112 53.2032C58.2056 53.3188 58.1524 53.4959 58.1524 53.7312V56.0119C58.1524 56.2439 58.2056 56.421 58.3112 56.5382C58.4126 56.6497 58.5839 56.7062 58.8192 56.7062C59.0545 56.7062 59.2258 56.6497 59.3264 56.5382C59.4328 56.421 59.486 56.2439 59.486 56.0119V53.7312C59.486 53.4967 59.4328 53.3188 59.3272 53.2032C59.2258 53.0918 59.0553 53.0361 58.8192 53.0361Z" fill="#00679C"/>
<path fill-rule="evenodd" clip-rule="evenodd" d="M44.0004 0C19.6991 0 0 19.6991 0 43.9996C0 68.3009 19.6991 88 44.0004 88C68.3009 88 88 68.3009 88 43.9996C88 19.6991 68.3009 0 44.0004 0ZM44.0004 2.05622C55.2036 2.05622 65.7366 6.41893 73.6589 14.3411C81.5811 22.2625 85.9438 32.7956 85.9438 43.9996C85.9438 55.2036 81.5811 65.7366 73.6589 73.6589C65.7366 81.5802 55.2036 85.9438 44.0004 85.9438C32.7964 85.9438 22.2634 81.5802 14.3411 73.6589C6.41893 65.7366 2.05622 55.2036 2.05622 43.9996C2.05622 32.7956 6.41893 22.2625 14.3411 14.3411C22.2634 6.41893 32.7964 2.05622 44.0004 2.05622Z" fill="#00679C"/>
<path fill-rule="evenodd" clip-rule="evenodd" d="M9.16725 61.4916L11.8967 60.0999L12.0865 60.4722L9.35708 61.864L9.16725 61.4916Z" fill="#00679C"/>
<path fill-rule="evenodd" clip-rule="evenodd" d="M11.186 63.9443L13.3311 62.7037L13.5315 63.0521L10.88 64.5853L10.6447 64.1804L12.0099 61.5912L12.0016 61.5763L9.85728 62.8185L9.65606 62.4709L12.3084 60.936L12.5595 61.3701L11.186 63.9443Z" fill="#00679C"/>
<path fill-rule="evenodd" clip-rule="evenodd" d="M12.6571 64.7553L11.508 65.5361L11.2727 65.1902L13.8062 63.4674L15.0018 65.2251L14.7117 65.423L13.7505 64.0103L12.9614 64.5483L13.8095 65.7938L13.5052 66.0008L12.6571 64.7553Z" fill="#00679C"/>
<path fill-rule="evenodd" clip-rule="evenodd" d="M15.4355 68.2584C16.0358 67.7213 16.1439 67.1783 15.7606 66.6271C15.3091 66.1157 14.7554 66.1016 14.0977 66.5839C13.499 67.1052 13.4001 67.6415 13.7984 68.1944C14.2515 68.69 14.797 68.7107 15.4355 68.2584ZM15.6966 68.586C14.8618 69.1672 14.1409 69.1065 13.5373 68.4039C12.9777 67.6506 13.0742 66.9306 13.8258 66.2438C14.6889 65.626 15.4256 65.68 16.0358 66.4076C16.5871 67.1526 16.4749 67.8784 15.6966 68.586Z" fill="#00679C"/>
<path fill-rule="evenodd" clip-rule="evenodd" d="M17.1722 68.3979L16.4064 69.1229L17.074 69.8288C17.3576 70.1281 17.6295 70.1548 17.8889 69.9095C18.14 69.6717 18.1391 69.4197 17.8856 69.1512L17.1722 68.3979ZM16.1511 69.3649L15.1908 70.2745L14.9031 69.971L17.1273 67.8632L18.1059 68.8976C18.574 69.3915 18.6098 69.8272 18.2123 70.203C17.9695 70.4325 17.6918 70.4965 17.3784 70.3926C17.4989 70.6179 17.4407 70.8407 17.2062 71.0635L16.8279 71.4676C16.7065 71.5674 16.6683 71.6722 16.7132 71.7844L16.6641 71.8302L16.3074 71.4535C16.3897 71.3288 16.561 71.1367 16.8204 70.8748C17.0957 70.6304 17.1031 70.3701 16.8421 70.0941L16.1511 69.3649Z" fill="#00679C"/>
<path fill-rule="evenodd" clip-rule="evenodd" d="M19.239 74.1491L18.9389 73.883L20.1387 72.5302C20.2493 72.4039 20.4197 72.2126 20.6492 71.9532L18.287 73.3043L17.9744 73.0266L19.0461 70.5314L19.0337 70.5206C18.9522 70.6129 18.8341 70.7542 18.6795 70.9446C18.598 71.0369 18.5497 71.091 18.5356 71.1076L17.335 72.4604L17.0223 72.1827L19.0553 69.8903L19.5059 70.2903L18.4475 72.8204L20.8213 71.4577L21.272 71.8568L19.239 74.1491Z" fill="#00679C"/>
<path fill-rule="evenodd" clip-rule="evenodd" d="M21.0025 73.9136L21.7666 74.4848L22.2165 73.1279L22.2032 73.1179L21.0025 73.9136ZM21.6677 74.869L20.6749 74.1281L19.8892 74.6486L19.5541 74.3984L22.3137 72.6356L22.6887 72.9159L21.74 76.0322L21.3775 75.7611L21.6677 74.869Z" fill="#00679C"/>
<path fill-rule="evenodd" clip-rule="evenodd" d="M23.321 73.8244L23.5114 73.5284L25.595 74.8679L25.4055 75.1631L24.5324 74.6027L23.0657 76.8842L22.7273 76.6664L24.194 74.3848L23.321 73.8244Z" fill="#00679C"/>
<path fill-rule="evenodd" clip-rule="evenodd" d="M24.3099 77.6419L25.8408 74.9884L26.2031 75.1974L24.6722 77.8509L24.3099 77.6419Z" fill="#00679C"/>
<path fill-rule="evenodd" clip-rule="evenodd" d="M28.1291 77.9411C28.4492 77.2027 28.3203 76.6639 27.7425 76.323C27.1189 76.0478 26.6092 76.2665 26.2134 76.9799C25.8883 77.7033 26.0222 78.2321 26.6158 78.5672C27.2336 78.8274 27.7383 78.6187 28.1291 77.9411ZM28.5033 78.129C27.9877 79.0062 27.3084 79.2523 26.4653 78.8665C25.6422 78.4159 25.4285 77.7216 25.8251 76.7837C26.3498 75.8616 27.0415 75.603 27.8996 76.0088C28.7128 76.4544 28.914 77.162 28.5033 78.129Z" fill="#00679C"/>
<path fill-rule="evenodd" clip-rule="evenodd" d="M30.4225 79.9165L31.3462 77.6175L31.7195 77.7672L30.5771 80.61L30.1422 80.4354L29.6217 77.5552L29.606 77.5494L28.6814 79.8484L28.3089 79.6987L29.4513 76.8559L29.9177 77.043L30.4225 79.9165Z" fill="#00679C"/>
<path fill-rule="evenodd" clip-rule="evenodd" d="M35.0383 79.7081L34.6683 79.6025C34.7531 79.2208 34.5627 78.9523 34.0962 78.7959C33.6522 78.682 33.3845 78.7909 33.2897 79.1235C33.2282 79.3389 33.3113 79.4952 33.5383 79.595L34.3216 80.0265C34.7306 80.2585 34.8745 80.5902 34.7523 81.0193C34.5868 81.5631 34.1187 81.7377 33.3504 81.5431C32.9313 81.4234 32.6611 81.2538 32.5381 81.0342C32.3693 80.8114 32.3368 80.5354 32.4424 80.2061L32.8291 80.315C32.711 80.7698 32.9147 81.0766 33.4377 81.2371C33.9557 81.3727 34.2658 81.282 34.3681 80.9619C34.487 80.7058 34.3232 80.468 33.8751 80.2477L33.2997 79.9442C32.9147 79.7081 32.7725 79.412 32.8731 79.0578C33.0702 78.4866 33.4992 78.2846 34.1602 78.4484C34.9011 78.6596 35.1938 79.0795 35.0383 79.7081Z" fill="#00679C"/>
<path fill-rule="evenodd" clip-rule="evenodd" d="M37.9947 80.3478L37.6005 80.2672C37.5847 79.8431 37.3486 79.5779 36.8913 79.474C36.2502 79.3775 35.8395 79.7159 35.6599 80.4875C35.4911 81.319 35.7397 81.8021 36.4066 81.9384C36.8688 82.0216 37.2097 81.7996 37.4301 81.2749L37.8242 81.3556C37.5498 82.0856 37.0285 82.3833 36.2585 82.2494C35.3897 82.039 35.0471 81.4287 35.23 80.4177C35.4778 79.4207 36.0548 78.9909 36.9611 79.1297C37.6679 79.296 38.0121 79.7026 37.9947 80.3478Z" fill="#00679C"/>
<path fill-rule="evenodd" clip-rule="evenodd" d="M38.1411 82.5334L38.5875 79.5024L39.0017 79.5634L38.5553 82.5944L38.1411 82.5334Z" fill="#00679C"/>
<path fill-rule="evenodd" clip-rule="evenodd" d="M41.5758 82.5539L41.5408 82.9198L39.2909 82.7061L39.5811 79.6562L41.7978 79.8674L41.7645 80.2167L39.9652 80.0454L39.8737 80.9957L41.5408 81.1537L41.5059 81.5212L39.8397 81.3616L39.7424 82.3793L41.5758 82.5539Z" fill="#00679C"/>
<path fill-rule="evenodd" clip-rule="evenodd" d="M44.1622 82.4038L44.2071 79.9269L44.6087 79.9335L44.5529 82.9975L44.0848 82.9883L42.5724 80.4823H42.5558L42.5109 82.96L42.1093 82.9526L42.165 79.8903L42.6672 79.8986L44.1622 82.4038Z" fill="#00679C"/>
<path fill-rule="evenodd" clip-rule="evenodd" d="M47.6521 80.6679L47.2513 80.6928C47.1249 80.287 46.8281 80.0933 46.3591 80.1108C45.7147 80.1848 45.4071 80.6171 45.4337 81.4104C45.4869 82.256 45.8519 82.6592 46.5321 82.6168C46.9994 82.5761 47.2712 82.2743 47.3477 81.7105L47.7493 81.6856C47.6737 82.4613 47.248 82.8846 46.4697 82.9561C45.5759 82.9777 45.0861 82.4771 45.0005 81.4536C44.9814 80.4259 45.427 79.8613 46.3375 79.7599C47.0625 79.7374 47.5007 80.0401 47.6521 80.6679Z" fill="#00679C"/>
<path fill-rule="evenodd" clip-rule="evenodd" d="M50.5737 82.0724L50.6252 82.4366L48.3869 82.7517L47.9604 79.7177L50.1654 79.4084L50.2145 79.7559L48.4244 80.0079L48.5566 80.9524L50.2145 80.7196L50.2661 81.0846L48.6081 81.3174L48.7503 82.3293L50.5737 82.0724Z" fill="#00679C"/>
<path fill-rule="evenodd" clip-rule="evenodd" d="M53.5732 81.1703L52.6894 80.5275C52.3776 80.8003 52.2628 81.058 52.3468 81.3016C52.4299 81.5918 52.6503 81.7149 53.0078 81.6725C53.2789 81.6051 53.4676 81.438 53.5732 81.1703ZM52.7143 80.0727C52.923 79.8482 53.0053 79.6437 52.9596 79.4591C52.9055 79.2438 52.77 79.1614 52.5538 79.2146C52.3368 79.2687 52.2503 79.4059 52.2928 79.6246C52.331 79.7767 52.4715 79.9256 52.7143 80.0727ZM53.9632 81.0048L54.6608 81.522L54.1893 81.6384L53.8127 81.3698C53.6597 81.6833 53.4044 81.8795 53.0436 81.9568C52.499 82.0807 52.1456 81.9036 51.981 81.4272C51.8413 81.048 51.9851 80.6789 52.4133 80.3197C52.124 80.1259 51.966 79.9305 51.9394 79.7302C51.8704 79.3103 52.055 79.0342 52.4931 78.902C52.908 78.8114 53.1799 78.9569 53.3088 79.3385C53.3944 79.6387 53.2805 79.943 52.9662 80.2523L53.6672 80.7844C53.6838 80.6198 53.683 80.4535 53.6647 80.2856L54.0222 80.1966C54.0646 80.4618 54.0447 80.7312 53.9632 81.0048Z" fill="#00679C"/>
<path fill-rule="evenodd" clip-rule="evenodd" d="M55.0047 78.5825L54.8858 78.2515L57.2197 77.4184L57.3378 77.7493L56.36 78.0977L57.2729 80.652L56.8946 80.7867L55.9825 78.2333L55.0047 78.5825Z" fill="#00679C"/>
<path fill-rule="evenodd" clip-rule="evenodd" d="M60.5753 78.8896L60.7233 79.2272L58.653 80.1351L57.4224 77.3289L59.462 76.4351L59.6033 76.7569L57.947 77.4836L58.3304 78.3566L59.8636 77.6848L60.0116 78.0224L58.4784 78.695L58.8891 79.6296L60.5753 78.8896Z" fill="#00679C"/>
<path fill-rule="evenodd" clip-rule="evenodd" d="M62.4865 75.8737L62.1315 76.0616C61.8505 75.7432 61.4996 75.6867 61.0797 75.8954C60.5218 76.2263 60.4179 76.7476 60.7671 77.4593C61.162 78.211 61.6601 78.4272 62.2629 78.1104C62.6728 77.8826 62.7975 77.4951 62.6362 76.9496L62.9921 76.7617C63.2415 77.5017 63.0253 78.0622 62.3444 78.4455C61.5387 78.8321 60.8876 78.5752 60.3896 77.6772C59.9514 76.7476 60.126 76.05 60.9159 75.5835C61.5686 75.2668 62.0916 75.3632 62.4865 75.8737Z" fill="#00679C"/>
<path fill-rule="evenodd" clip-rule="evenodd" d="M64.7098 74.8776L64.0346 73.8191L64.3872 73.5938L66.0351 76.1763L65.6817 76.4017L64.9168 75.2027L63.5615 76.0666L64.3273 77.2664L63.9747 77.4917L62.3259 74.9083L62.6793 74.6839L63.3545 75.7423L64.7098 74.8776Z" fill="#00679C"/>
<path fill-rule="evenodd" clip-rule="evenodd" d="M67.8678 74.0891L66.3729 72.1127L66.693 71.8708L68.5422 74.3145L68.168 74.5963L65.4316 73.5603L65.4183 73.5711L66.9133 75.5467L66.5932 75.7895L64.744 73.345L65.1448 73.0423L67.8678 74.0891Z" fill="#00679C"/>
<path fill-rule="evenodd" clip-rule="evenodd" d="M69.8577 71.131C69.2873 70.5623 68.7385 70.4858 68.2105 70.8999C67.7258 71.3797 67.7441 71.9342 68.2629 72.5628C68.8175 73.1299 69.3588 73.1981 69.8876 72.769C70.3565 72.2893 70.3466 71.7422 69.8577 71.131ZM70.1695 70.8517C70.7972 71.6524 70.7781 72.3741 70.1113 73.0185C69.3912 73.6196 68.667 73.5648 67.9386 72.853C67.2726 72.0265 67.2843 71.2882 67.9752 70.638C68.6869 70.0443 69.4186 70.1158 70.1695 70.8517Z" fill="#00679C"/>
<path fill-rule="evenodd" clip-rule="evenodd" d="M69.6227 69.1839L71.5675 71.0497L72.6459 69.9272L72.912 70.1817L71.5442 71.6068L69.3333 69.4857L69.6227 69.1839Z" fill="#00679C"/>
<path fill-rule="evenodd" clip-rule="evenodd" d="M73.5734 67.0265C72.9257 66.5501 72.3711 66.5551 71.9104 67.0432C71.5022 67.5894 71.602 68.1349 72.2089 68.6795C72.8417 69.1576 73.3871 69.1459 73.8461 68.6421C74.2385 68.0975 74.1479 67.5595 73.5734 67.0265ZM73.8403 66.7039C74.5803 67.4023 74.6684 68.1191 74.1047 68.8549C73.4819 69.5567 72.7577 69.6099 71.9321 69.0154C71.1497 68.297 71.0524 67.5645 71.6394 66.8195C72.2547 66.126 72.988 66.0878 73.8403 66.7039Z" fill="#00679C"/>
<path fill-rule="evenodd" clip-rule="evenodd" d="M75.0414 65.3921L74.752 65.1933L75.5111 64.09L76.8623 65.0204L76.7109 65.2407L76.3368 65.1052C76.4332 65.4561 76.3625 65.8144 76.1256 66.1786C75.8911 66.5187 75.6234 66.7216 75.3224 66.7848C74.8751 66.8837 74.4294 66.7731 73.9846 66.453C73.193 65.8136 73.0317 65.1127 73.5006 64.3519C73.9679 63.7516 74.4909 63.5836 75.0688 63.8464L74.841 64.1773C74.4286 64.0276 74.0752 64.1582 73.7808 64.5647C73.4574 65.1143 73.6121 65.6274 74.2456 66.1038C74.9441 66.586 75.487 66.5461 75.8728 65.9849C76.0117 65.7828 76.0774 65.57 76.0682 65.3463C76.0474 65.062 75.8828 64.82 75.5727 64.6196L75.0414 65.3921Z" fill="#00679C"/>
<path fill-rule="evenodd" clip-rule="evenodd" d="M76.803 62.6767L77.8764 63.2953L77.6677 63.6586L76.5943 63.04L74.4358 63.1298L74.6778 62.7091L76.3889 62.6908L75.5558 61.1858L75.7986 60.7651L76.803 62.6767Z" fill="#00679C"/>
<path fill-rule="evenodd" clip-rule="evenodd" d="M20.1057 67.0956L21.9283 65.4168L22.2002 65.7128L19.9469 67.7882L19.6293 67.4431L20.3976 64.6194L20.386 64.6078L18.5634 66.2857L18.2907 65.9905L20.5448 63.9152L20.8848 64.2844L20.1057 67.0956Z" fill="#00679C"/>
<path fill-rule="evenodd" clip-rule="evenodd" d="M21.9388 67.9425L22.6489 68.5803L23.2176 67.2682L23.2051 67.2574L21.9388 67.9425ZM22.5158 68.9553L21.5929 68.1279L20.7639 68.5769L20.4521 68.2976L23.3573 66.7859L23.7065 67.0986L22.4851 70.1185L22.1475 69.8167L22.5158 68.9553Z" fill="#00679C"/>
<path fill-rule="evenodd" clip-rule="evenodd" d="M25.0541 71.3105L26.5183 69.3125L26.8426 69.5495L25.0316 72.0206L24.6541 71.7437L24.8628 68.8253L24.8487 68.8145L23.3845 70.8133L23.0602 70.5763L24.8712 68.1052L25.2761 68.4012L25.0541 71.3105Z" fill="#00679C"/>
<path fill-rule="evenodd" clip-rule="evenodd" d="M26.1569 71.5736L26.4862 71.7731L26.3739 71.9594C26.2001 72.2454 26.2475 72.4699 26.5144 72.6312C26.7913 72.8 27.0225 72.731 27.2079 72.4242L28.3778 70.491L28.7361 70.708L27.5737 72.627C27.2694 73.1084 26.867 73.2032 26.3648 72.9122C25.9025 72.6195 25.7811 72.2595 26.0014 71.8313L26.1569 71.5736Z" fill="#00679C"/>
<path fill-rule="evenodd" clip-rule="evenodd" d="M28.0239 73.8054L29.4545 71.0963L29.8248 71.2919L28.3942 74.001L28.0239 73.8054Z" fill="#00679C"/>
<path fill-rule="evenodd" clip-rule="evenodd" d="M31.4064 74.7622L32.4 72.4931L32.7683 72.6536L31.5394 75.4598L31.1104 75.2719L30.678 72.3775L30.6622 72.3709L29.6678 74.6408L29.3003 74.4795L30.5292 71.6732L30.9898 71.8745L31.4064 74.7622Z" fill="#00679C"/>
<path fill-rule="evenodd" clip-rule="evenodd" d="M34.164 75.0019L34.2696 74.6668L35.5467 75.0701L35.052 76.6349L34.7967 76.5542L34.8167 76.1568C34.5091 76.3513 34.1465 76.3887 33.7275 76.2682C33.3342 76.1435 33.0631 75.9472 32.9143 75.677C32.689 75.2787 32.664 74.8198 32.8403 74.3018C33.2203 73.3564 33.8439 72.998 34.7086 73.2242C35.4187 73.4961 35.733 73.9467 35.6507 74.5762L35.2673 74.4556C35.289 74.0166 35.062 73.7173 34.5864 73.5551C33.9669 73.4054 33.5213 73.7031 33.2502 74.4489C32.9941 75.258 33.1903 75.7652 33.8397 75.9705C34.0742 76.0445 34.2962 76.0445 34.5074 75.9705C34.7735 75.8674 34.9572 75.6396 35.0578 75.2846L34.164 75.0019Z" fill="#00679C"/>
<path fill-rule="evenodd" clip-rule="evenodd" d="M39.9425 74.4846L40.3558 74.5511L40.0465 76.5017C39.8976 77.2243 39.4245 77.5336 38.6272 77.4296C37.893 77.29 37.5629 76.8767 37.6385 76.1874L37.9578 74.1703L38.3719 74.236L38.0701 76.1367C37.9936 76.6905 38.2023 77.0114 38.6962 77.1012C39.2383 77.176 39.5534 76.9382 39.6407 76.387L39.9425 74.4846Z" fill="#00679C"/>
<path fill-rule="evenodd" clip-rule="evenodd" d="M42.9487 77.2127L43.0876 74.7383L43.4883 74.7616L43.317 77.8197L42.8489 77.7939L41.4329 75.233L41.4163 75.2322L41.2774 77.7066L40.8767 77.6833L41.048 74.6252L41.5493 74.6526L42.9487 77.2127Z" fill="#00679C"/>
<path fill-rule="evenodd" clip-rule="evenodd" d="M44.3385 77.8036L44.2886 74.7406L44.7069 74.7338L44.7567 77.7968L44.3385 77.8036Z" fill="#00679C"/>
<path fill-rule="evenodd" clip-rule="evenodd" d="M46.8325 77.233L47.496 74.5557L47.9624 74.5158L47.1044 77.6637L46.6537 77.702L45.2768 74.7444L45.7441 74.7045L46.8325 77.233Z" fill="#00679C"/>
<path fill-rule="evenodd" clip-rule="evenodd" d="M51.162 76.6857L51.2277 77.0491L49.0036 77.4507L48.459 74.4358L50.649 74.0392L50.7114 74.3851L48.9329 74.7077L49.1025 75.6464L50.7505 75.3487L50.8153 75.7112L49.1682 76.0089L49.3503 77.0141L51.162 76.6857Z" fill="#00679C"/>
<path fill-rule="evenodd" clip-rule="evenodd" d="M51.8078 74.0931L52.0963 75.1074L53.0309 74.8405C53.4275 74.7283 53.5771 74.4996 53.4799 74.1562C53.3842 73.8237 53.1598 73.7073 52.8055 73.8079L51.8078 74.0931ZM52.1927 75.445L52.5553 76.7172L52.1528 76.8319L51.3131 73.8852L52.6817 73.4952C53.3368 73.309 53.7393 73.4794 53.889 74.0049C53.9812 74.3267 53.9081 74.6027 53.6719 74.8331C53.9264 74.8297 54.0985 74.9836 54.1874 75.2953L54.3704 75.8167C54.4028 75.9713 54.4785 76.0536 54.5974 76.0661L54.6156 76.1301L54.1168 76.2723C54.0453 76.1426 53.953 75.9015 53.8415 75.5498C53.7509 75.1922 53.5239 75.0659 53.1589 75.1698L52.1927 75.445Z" fill="#00679C"/>
<path fill-rule="evenodd" clip-rule="evenodd" d="M56.6943 72.9985L56.336 73.1399C56.1713 72.7849 55.857 72.6876 55.3922 72.8472C54.9707 73.026 54.8235 73.2762 54.9507 73.598C55.0331 73.8059 55.1944 73.8799 55.4347 73.82L56.3185 73.687C56.785 73.623 57.1001 73.7984 57.2647 74.2133C57.4634 74.7471 57.1982 75.1695 56.4698 75.4813C56.0649 75.6418 55.7464 75.6717 55.5153 75.5711C55.2451 75.4979 55.0522 75.2984 54.9358 74.9724L55.3091 74.8236C55.492 75.256 55.8404 75.3765 56.3526 75.1861C56.8473 74.9791 57.0377 74.7172 56.9246 74.4012C56.8639 74.126 56.5887 74.037 56.099 74.1343L55.4579 74.2432C55.0081 74.2898 54.7154 74.141 54.5807 73.7984C54.3903 73.2255 54.6065 72.804 55.2318 72.5321C55.9477 72.2494 56.4349 72.4049 56.6943 72.9985Z" fill="#00679C"/>
<path fill-rule="evenodd" clip-rule="evenodd" d="M58.3769 74.6031L57.0554 71.8386L57.4332 71.658L58.7547 74.4225L58.3769 74.6031Z" fill="#00679C"/>
<path fill-rule="evenodd" clip-rule="evenodd" d="M58.1158 71.7377L57.9437 71.4309L60.1047 70.2186L60.2768 70.5254L59.3713 71.0326L60.6983 73.3981L60.3483 73.5944L59.0213 71.2297L58.1158 71.7377Z" fill="#00679C"/>
<path fill-rule="evenodd" clip-rule="evenodd" d="M62.6023 70.7316L63.304 71.7526L62.9598 71.9896L62.2572 70.9694L60.2708 70.1213L60.6708 69.8461L62.2231 70.5661L62.1192 68.8491L62.5191 68.5731L62.6023 70.7316Z" fill="#00679C"/>
<path fill-rule="evenodd" clip-rule="evenodd" d="M66.7077 66.9599C66.129 66.4012 65.5786 66.333 65.0573 66.7554C64.58 67.2426 64.6066 67.7964 65.1354 68.4166C65.6983 68.9754 66.2413 69.0352 66.7634 68.5979C67.2249 68.1098 67.2058 67.5644 66.7077 66.9599ZM67.0145 66.6764C67.6556 67.4663 67.6473 68.1897 66.9913 68.844C66.2803 69.456 65.5553 69.4119 64.8161 68.7118C64.1368 67.897 64.1377 67.1586 64.8178 66.4968C65.5204 65.8923 66.2529 65.9513 67.0145 66.6764Z" fill="#00679C"/>
<path fill-rule="evenodd" clip-rule="evenodd" d="M67.8832 65.914L68.9209 66.8378L68.6432 67.1504L66.3542 65.1133L67.7685 63.5252L68.0304 63.7597L66.8955 65.0343L67.608 65.6696L68.6099 64.5446L68.8852 64.7891L67.8832 65.914Z" fill="#00679C"/>
<path fill-rule="evenodd" clip-rule="evenodd" d="M14.4603 23.8762C14.4603 23.8762 14.1585 23.7249 14.3855 23.4072C14.3855 23.4072 14.4104 23.3748 14.4254 23.3366C14.4254 23.3366 14.5135 23.1561 14.7721 22.9541C14.7721 22.9541 15.0981 22.6955 15.2036 22.2083C15.2036 22.2083 15.3209 21.5971 15.3408 21.2147C15.3408 21.2147 15.3142 20.7549 14.9584 20.3125C14.9584 20.3125 14.8345 20.1495 14.6831 19.9109C14.6831 19.9109 14.5875 19.7613 14.363 19.5442C14.363 19.5442 14.1294 19.3705 14.0662 19.1352C14.0662 19.1352 13.9822 18.8691 14.3215 18.5972C14.3215 18.5972 14.674 18.3178 15.6385 18.7203C15.6385 18.7203 15.8073 18.781 15.9728 19.0138C15.9728 19.0138 16.1008 19.2225 16.2762 19.1535C16.2762 19.1535 16.514 19.0163 16.618 19.1202C16.618 19.1202 16.6695 19.1692 16.6604 19.2782C16.6604 19.2782 16.6454 19.4361 16.7286 19.6972C16.7286 19.6972 16.7868 19.8502 16.4974 20.1645C16.4974 20.1645 16.3436 20.2884 16.4251 20.8006C16.4251 20.8006 16.4758 21.06 16.4525 21.3469C16.4525 21.3469 16.4151 21.7925 16.4733 22.1309C16.4733 22.1309 16.4808 22.2132 16.5373 22.1758C16.5373 22.1758 16.588 22.1334 16.588 22.0528C16.588 22.0528 16.5731 21.7809 16.7319 21.3926C16.7319 21.3926 17.1036 20.4988 17.2682 19.8577C17.2682 19.8577 17.3156 19.6573 17.3946 19.5567C17.3946 19.5567 17.4827 19.4403 17.5068 19.3231C17.5068 19.3231 17.5135 19.2682 17.6024 19.1776C17.6024 19.1776 17.856 18.9148 17.9616 18.9156C17.9616 18.9156 18.5137 18.924 18.6251 19.1742C18.6251 19.1742 18.6526 19.2333 18.6517 19.3214C18.6517 19.3214 18.6393 19.4378 18.828 19.654C18.828 19.654 19.3643 20.3133 19.9106 21.3086C19.9106 21.3086 20.1126 21.7061 20.4386 22.091C20.4386 22.091 20.6905 22.3646 20.8759 22.8576C20.8759 22.8576 20.9408 23.0431 21.2551 23.4081C21.2551 23.4081 21.8213 24.0034 21.3831 24.5064C21.3831 24.5064 21.221 24.6761 20.9591 24.6411C20.9591 24.6411 20.4635 24.5721 19.9239 24.8132C19.9239 24.8132 19.5389 24.9845 19.0716 24.8706C19.0716 24.8706 18.8804 24.8174 18.8571 24.7077C18.8571 24.7077 18.8388 24.607 18.9885 24.5655C18.9885 24.5655 19.3926 24.4424 19.8308 24.3917C19.8308 24.3917 20.1883 24.336 20.3878 24.193C20.3878 24.193 20.693 23.9876 20.5134 23.8172C20.5134 23.8172 19.0908 22.4236 18.7914 21.5872C18.7914 21.5872 18.4738 20.853 18.3125 20.5179C18.3125 20.5179 18.0132 19.8311 17.8951 19.6964C17.8951 19.6964 17.7662 19.5526 17.7055 19.6615C17.7055 19.6615 17.5343 19.9633 17.3596 20.9403C17.3596 20.9403 17.2407 21.6054 17.0778 22.0228C17.0778 22.0228 17.0329 22.1625 17.0736 22.2448C17.0736 22.2448 17.0986 22.313 17.1559 22.2598C17.1559 22.2598 17.4993 21.9987 17.7704 22.2814C17.7704 22.2814 17.891 22.3563 17.7296 22.8119C17.7296 22.8119 17.5575 23.2958 17.6432 23.734C17.6432 23.734 17.649 23.7914 17.6856 23.7739C17.6856 23.7739 17.7912 23.7282 17.9375 23.7589C17.9375 23.7589 18.1105 23.7914 18.1113 23.9086C18.1113 23.9086 18.1171 24.015 18.1687 24.1023C18.1687 24.1023 18.2551 24.198 18.0414 24.4998C18.0414 24.4998 17.9483 24.6436 18.0905 24.7808C18.0905 24.7808 18.1354 24.8241 18.1628 24.7999C18.1628 24.7999 18.1811 24.7933 18.1753 24.7326C18.1753 24.7326 18.1645 24.4782 18.1695 24.4133C18.1695 24.4133 18.1687 24.3252 18.2393 24.267C18.2393 24.267 18.3059 24.2129 18.3666 24.1655C18.3666 24.1655 18.4006 24.1314 18.448 24.1472C18.448 24.1472 18.5852 24.1905 18.6451 24.2537C18.6451 24.2537 18.7174 24.3376 18.7515 24.415C18.7515 24.415 18.7815 24.4798 18.7615 24.5322C18.7615 24.5322 18.6576 24.7592 18.685 25.0244C18.685 25.0244 18.6908 25.1117 18.7981 25.1417C18.7981 25.1417 18.9045 25.1716 19.0234 25.1974C19.0234 25.1974 19.2595 25.2439 19.3144 25.4718C19.3144 25.4718 19.3327 25.5632 19.3626 25.6314C19.3626 25.6314 19.4666 25.7644 19.1515 26.1128C19.1515 26.1128 19.0159 26.2642 18.9103 26.2301C18.9103 26.2301 18.5478 26.1802 17.9525 25.5865C17.9525 25.5865 17.9259 25.5691 17.95 25.5175C17.95 25.5175 18.0647 25.303 17.9442 25.2074C17.9442 25.2074 17.8236 25.13 17.6523 25.1741C17.6523 25.1741 17.422 25.2381 17.3738 25.0693C17.3738 25.0693 17.3405 24.9779 17.3638 24.8806C17.3638 24.8806 17.437 24.548 17.5193 24.2828C17.5193 24.2828 17.5467 24.2312 17.4669 24.2196C17.4669 24.2196 17.3596 24.2138 17.3147 24.1082C17.3147 24.1082 17.3056 24.0874 17.3147 24.0641C17.3147 24.0641 17.4012 23.4904 17.1609 22.8776C17.1609 22.8776 17.1277 22.792 17.0794 22.8319C17.0794 22.8319 17.0429 22.861 17.0537 22.9474C17.0537 22.9474 17.0927 23.1844 17.0362 23.2584C17.0362 23.2584 16.9398 23.3756 16.958 23.4563C16.958 23.4563 17.0038 23.6226 17.131 23.9444C17.131 23.9444 17.2599 24.2079 17.121 24.4075C17.121 24.4075 17.0778 24.4723 17.0429 24.4682C17.0429 24.4682 16.9289 24.479 16.825 24.5006C16.825 24.5006 16.7735 24.5172 16.7119 24.4707C16.7119 24.4707 16.5864 24.3584 16.4758 24.3634C16.4758 24.3634 16.3694 24.3643 16.3702 24.4807C16.3702 24.4807 16.4026 24.6436 16.1607 24.8457C16.1607 24.8457 16.1241 24.8756 16.0975 24.8823C16.0975 24.8823 16.0052 24.8997 15.8314 24.7309C15.8314 24.7309 15.809 24.7126 15.8281 24.6661C15.8281 24.6661 15.9595 24.4358 15.9952 24.1431C15.9952 24.1431 16.0335 23.877 16.1756 23.6201C16.1756 23.6201 16.2962 23.4156 16.223 23.2792C16.223 23.2792 16.1083 23.1112 16.0966 22.8909C16.0966 22.8909 16.0808 22.7304 15.9977 22.7678C15.9977 22.7678 15.8297 22.8144 15.7607 23.1969C15.7607 23.1969 15.794 23.384 15.6726 23.5278C15.6726 23.5278 15.5695 23.6301 15.5005 23.7149C15.5005 23.7149 15.3783 23.8912 15.0116 24.0026C15.0116 24.0026 14.8087 24.0167 14.4603 23.8762Z" fill="#00679C"/>
<path fill-rule="evenodd" clip-rule="evenodd" d="M15.8933 25.7682C15.8933 25.7682 15.8226 25.5969 15.9423 25.5412C15.9423 25.5412 16.0413 25.5071 16.176 25.6202C16.176 25.6202 16.413 25.8521 16.6 25.853C16.6 25.853 17.1305 25.8887 17.4016 26.1315C17.4016 26.1315 17.9354 26.5905 17.5554 27.0985C17.5554 27.0985 17.5038 27.1916 17.3691 27.1933C17.3691 27.1933 17.0615 27.2158 16.8919 27.0578C16.8919 27.0578 16.7613 26.953 16.5884 26.7385C16.5884 26.7385 16.0829 26.1623 15.8933 25.7682Z" fill="#00679C"/>
<path fill-rule="evenodd" clip-rule="evenodd" d="M21.9409 13.2312C21.9409 13.2312 21.8785 13.2727 21.8245 13.2029C21.8245 13.2029 21.7555 13.1106 21.6465 13.0432C21.6465 13.0432 21.5775 13.0175 21.6066 12.8994C21.6066 12.8994 21.6698 12.645 21.7854 12.4504C21.7854 12.4504 21.8561 12.3274 22.0714 12.2966C22.0714 12.2966 22.7125 12.2051 23.228 12.2783C23.228 12.2783 23.766 12.3481 23.6279 12.7165C23.6279 12.7165 23.4716 12.9019 23.4142 13.158C23.4142 13.158 23.3677 13.4448 22.9453 13.7117C22.9453 13.7117 22.8788 13.7591 22.8771 13.6885C22.8771 13.6885 22.8796 13.4673 22.7815 13.3276C22.7815 13.3276 22.5944 13.0532 21.9409 13.2312Z" fill="#00679C"/>
<path fill-rule="evenodd" clip-rule="evenodd" d="M20.8965 17.3519C20.8965 17.3519 20.8092 17.3037 20.8782 17.2156C20.8782 17.2156 21.0195 17.0484 21.3821 16.789C21.3821 16.789 21.5791 16.6576 21.6307 16.4681C21.6307 16.4681 21.8918 15.4678 22.8837 14.3204C22.8837 14.3204 23.5056 13.6261 23.7202 13.1663C23.7202 13.1663 23.7493 13.0898 23.8208 13.0383C23.8208 13.0383 24.1533 12.7938 24.2631 12.8079C24.2631 12.8079 24.5059 12.8329 24.5017 13.0807C24.5017 13.0807 24.5267 13.3916 24.2889 13.5579C24.2889 13.5579 24.1375 13.6577 24.0486 13.7126C24.0486 13.7126 23.9505 13.7766 23.8532 13.9105C23.8532 13.9105 22.5844 15.4686 22.384 16.3957C22.384 16.3957 22.2243 17.1349 21.7637 17.4159C21.7637 17.4159 21.4045 17.628 20.8965 17.3519Z" fill="#00679C"/>
<path fill-rule="evenodd" clip-rule="evenodd" d="M23.185 16.7429C23.185 16.7429 23.111 16.6989 23.037 16.841C23.037 16.841 22.8291 17.3017 23.2008 17.8687C23.2008 17.8687 23.3712 18.1173 23.5616 17.9486C23.5616 17.9486 23.609 17.9062 23.6656 17.8297C23.6656 17.8297 23.7587 17.6933 23.9408 17.6575C23.9408 17.6575 24.0938 17.6417 24.0921 17.7008C24.0921 17.7008 24.1121 17.8704 24.1187 18.0126C24.1187 18.0126 24.1121 18.2329 24.349 18.5331C24.349 18.5331 24.6533 18.8956 24.7797 19.2664C24.7797 19.2664 24.8055 19.3354 24.7257 19.3803C24.7257 19.3803 24.5685 19.4568 24.3141 19.4884C24.3141 19.4884 24.1985 19.4909 24.2002 19.5633C24.2002 19.5633 24.1985 19.6165 24.3648 19.7745C24.3648 19.7745 24.4039 19.821 24.4638 19.7844C24.4638 19.7844 24.6592 19.6755 24.8097 19.8177C24.8097 19.8177 24.8978 19.915 24.9843 19.9083C24.9843 19.9083 25.0832 19.8983 25.2054 19.8751C25.2054 19.8751 25.321 19.8468 25.3892 19.8543C25.3892 19.8543 25.4324 19.8676 25.4815 19.8185C25.4815 19.8185 25.5613 19.7196 25.5879 19.5949C25.5879 19.5949 25.5946 19.5674 25.5813 19.5516C25.5813 19.5516 25.3194 19.1608 25.1539 18.8075C25.1539 18.8075 24.6858 17.6426 24.4929 17.4904C24.4929 17.4904 24.2667 17.231 24.3657 16.9949C24.3657 16.9949 24.6076 16.6066 24.6459 16.4295C24.6459 16.4295 24.6933 16.2307 24.5586 16.0761C24.5586 16.0761 24.4363 15.958 24.5137 15.756C24.5137 15.756 24.719 15.0409 24.946 14.5079C24.946 14.5079 25.0026 14.4248 24.7864 14.3234C24.7864 14.3234 24.6575 14.2652 24.4804 14.3824C24.4804 14.3824 24.1295 14.621 24.0763 14.7624C24.0763 14.7624 23.9192 15.3353 23.5051 16.0403C23.5051 16.0403 23.4735 16.0944 23.5026 16.1418C23.5026 16.1418 23.5384 16.1908 23.6257 16.2283C23.6257 16.2283 23.6755 16.2615 23.7312 16.1709C23.7312 16.1709 23.8061 16.0387 23.851 15.8882C23.851 15.8882 23.8643 15.8483 23.8959 15.8416C23.8959 15.8416 23.9757 15.8233 24.004 15.9073C24.004 15.9073 24.0979 16.1152 23.9616 16.4927C23.9616 16.4927 23.8477 16.792 23.7911 17.0373C23.7911 17.0373 23.7737 17.172 23.6597 17.1903C23.6597 17.1903 23.6049 17.1994 23.5783 17.1262C23.5783 17.1262 23.4935 16.915 23.4161 16.8568C23.4161 16.8568 23.3238 16.7986 23.185 16.7429Z" fill="#00679C"/>
<path fill-rule="evenodd" clip-rule="evenodd" d="M23.8771 18.6041C23.8771 18.6041 23.7574 18.5484 23.7017 18.7063C23.7017 18.7063 23.6767 18.8726 23.5354 19.2135C23.5354 19.2135 23.468 19.3549 23.4306 19.68C23.4306 19.68 23.3916 19.8903 23.1987 20.0151C23.1987 20.0151 22.9816 20.1298 22.9742 20.3319C22.9742 20.3319 22.9974 20.5613 22.9775 20.6836C22.9775 20.6836 22.975 20.7118 22.9883 20.7368C22.9883 20.7368 23.0997 20.9604 23.3051 21.0494C23.3051 21.0494 23.4606 21.1101 23.5229 21.1467C23.5229 21.1467 23.5487 21.1683 23.5778 21.1475C23.5778 21.1475 23.9985 20.948 23.8946 20.3352C23.8946 20.3352 23.8048 19.9427 23.9569 19.5062C23.9569 19.5062 24.0717 19.1495 24.1 18.8676C24.1 18.8676 24.1191 18.718 23.8771 18.6041Z" fill="#00679C"/>
<path fill-rule="evenodd" clip-rule="evenodd" d="M25.4228 17.5428C25.4228 17.5428 25.387 17.5104 25.4153 17.4747C25.4153 17.4747 25.4552 17.4239 25.471 17.3549C25.471 17.3549 25.481 17.3117 25.5483 17.2834C25.5483 17.2834 25.7387 17.1895 25.8443 17.1171C25.8443 17.1171 25.8909 17.0764 25.9682 17.1055C25.9682 17.1055 26.3174 17.2194 26.5777 17.4115C26.5777 17.4115 26.8038 17.5819 26.7581 17.838C26.7581 17.838 26.6858 18.1166 26.4521 18.2579C26.4521 18.2579 26.3548 18.3161 26.2734 18.3203C26.2734 18.3203 26.0838 18.3302 26.0106 18.218C26.0106 18.218 25.8435 17.9253 25.7454 17.8064C25.7454 17.8064 25.6963 17.7449 25.6107 17.7033C25.6107 17.7033 25.5226 17.6526 25.4228 17.5428Z" fill="#00679C"/>
<path fill-rule="evenodd" clip-rule="evenodd" d="M28.3409 10.5273C28.3409 10.5273 28.291 10.4583 28.3226 10.3909C28.3226 10.3909 28.3459 10.3411 28.3717 10.2562C28.3717 10.2562 28.3767 10.2246 28.4091 10.2138C28.4091 10.2138 28.6727 10.1149 28.7866 10.0633C28.7866 10.0633 28.8257 10.0434 28.8656 10.065C28.8656 10.065 29.0543 10.1997 29.1549 10.514C29.1549 10.514 29.179 10.5647 29.1483 10.6121C29.1483 10.6121 29.0036 10.9946 28.9022 11.3563C28.9022 11.3563 28.6885 12.1537 28.1929 12.5993C28.1929 12.5993 28.1081 12.6708 27.9975 12.6509C27.9975 12.6509 27.8562 12.6184 27.8387 12.4588C27.8387 12.4588 27.8387 12.3665 27.8038 12.2775C27.8038 12.2775 27.7755 12.2476 27.8246 12.1578C27.8246 12.1578 28.2669 11.2565 28.3384 11.0187C28.3384 11.0187 28.4449 10.7634 28.3409 10.5273Z" fill="#00679C"/>
<path fill-rule="evenodd" clip-rule="evenodd" d="M28.5925 12.96C28.5925 12.96 28.5733 12.8378 28.7005 12.8054C28.7005 12.8054 28.8826 12.7521 28.9699 12.8419C28.9699 12.8419 29.384 13.1504 29.5262 14.3735C29.5262 14.3735 29.5287 14.603 29.6343 14.8491C29.6343 14.8491 29.8139 15.1567 29.9544 15.8419C29.9544 15.8419 30.0716 16.4189 30.2645 16.8928C30.2645 16.8928 30.4558 17.2986 30.2554 17.4657C30.2554 17.4657 30.134 17.5281 30.06 17.5821C30.06 17.5821 29.8671 17.7243 29.739 17.7027C29.739 17.7027 29.6118 17.6819 29.458 17.5539C29.458 17.5539 29.2526 17.3909 29.2011 16.897C29.2011 16.897 29.1745 16.769 29.2784 16.6143C29.2784 16.6143 29.4214 16.3241 29.2477 15.9666C29.2477 15.9666 29.0323 15.5999 28.9799 14.8973C28.9799 14.8973 28.9633 14.356 28.8943 14.1266C28.8943 14.1266 28.6714 13.4057 28.5925 12.96Z" fill="#00679C"/>
<path fill-rule="evenodd" clip-rule="evenodd" d="M30.624 8.84412C30.624 8.84412 30.5907 8.76014 30.619 8.71109C30.619 8.71109 30.6896 8.60798 30.7079 8.49075C30.7079 8.49075 30.7096 8.41675 30.7927 8.40261C30.7927 8.40261 31.3299 8.27706 31.7057 8.14569C31.7057 8.14569 31.8005 8.11659 31.862 8.14319C31.862 8.14319 32.0616 8.22468 32.1888 8.48825C32.1888 8.48825 32.2204 8.5581 32.178 8.61713C32.178 8.61713 32.1065 8.68947 32.0516 8.85909C32.0516 8.85909 31.9418 9.22992 31.3606 9.35797C31.3606 9.35797 31.3008 9.3721 31.2658 9.32222C31.2658 9.32222 31.25 9.29478 31.1968 9.29561C31.1968 9.29561 31.0854 9.30725 31.0987 9.11601C31.0987 9.11601 31.1112 9.03868 30.9831 9.04201C30.9831 9.04201 30.7229 9.09273 30.624 8.84412Z" fill="#00679C"/>
<path fill-rule="evenodd" clip-rule="evenodd" d="M29.6058 12.0968C29.6058 12.0968 29.5784 12.0361 29.6283 11.9654C29.6283 11.9654 29.7887 11.7102 30.2211 11.3709C30.2211 11.3709 30.434 11.1889 30.5753 10.9369C30.5753 10.9369 31.1183 10.0905 31.5656 9.98572C31.5656 9.98572 31.899 9.90091 32.106 10.0107C32.106 10.0107 32.2108 10.0597 32.2757 10.2368C32.2757 10.2368 32.2948 10.2709 32.2565 10.3092C32.2565 10.3092 32.0246 10.5636 31.6296 11.0242C31.6296 11.0242 31.317 11.3784 30.9636 11.4749C30.9636 11.4749 30.7616 11.5364 30.5861 11.7085C30.5861 11.7085 30.3442 12.0187 29.9949 12.2573C29.9949 12.2573 29.9301 12.3022 29.8644 12.2947C29.8644 12.2947 29.7646 12.293 29.6856 12.224C29.6856 12.224 29.6391 12.1816 29.6058 12.0968Z" fill="#00679C"/>
<path fill-rule="evenodd" clip-rule="evenodd" d="M30.7031 12.4639C30.7031 12.4639 30.6549 12.4098 30.7405 12.3682C30.7405 12.3682 31.0848 12.2044 31.7 11.4694C31.7 11.4694 31.7358 11.4121 31.7948 11.3863C31.7948 11.3863 31.9137 11.3381 32.0351 11.2907C32.0351 11.2907 32.0626 11.2799 32.0892 11.294C32.0892 11.294 32.2313 11.353 32.3386 11.5118C32.3386 11.5118 32.3619 11.5434 32.3303 11.5759C32.3303 11.5759 32.228 11.7039 32.1158 11.9309C32.1158 11.9309 31.9919 12.2876 31.6086 12.5196C31.6086 12.5196 31.2111 12.7432 31.1238 12.7125C31.1238 12.7125 31.0457 12.6817 30.9708 12.6717C30.9708 12.6717 30.8519 12.6717 30.7031 12.4639Z" fill="#00679C"/>
<path fill-rule="evenodd" clip-rule="evenodd" d="M30.9526 13.4188C30.9526 13.4188 30.941 13.3847 30.9692 13.3673C30.9692 13.3673 31.6219 12.9573 31.9961 12.4177C31.9961 12.4177 32.1216 12.2389 32.2372 12.3105C32.2372 12.3105 32.3428 12.4003 32.4326 12.446C32.4326 12.446 32.623 12.5424 32.485 12.7345C32.485 12.7345 32.253 13.0654 32.1341 13.2467C32.1341 13.2467 31.7849 13.7838 31.3575 13.8246C31.3575 13.8246 31.0965 13.8437 30.9526 13.4188Z" fill="#00679C"/>
<path fill-rule="evenodd" clip-rule="evenodd" d="M30.8853 15.7923C30.8853 15.7923 30.872 15.769 30.8894 15.7474C30.8894 15.7474 30.9767 15.6601 31.0407 15.5495C31.0407 15.5495 31.059 15.5088 31.1297 15.4872C31.1297 15.4872 31.4698 15.3741 31.6078 15.5487C31.6078 15.5487 31.7508 15.7499 31.8681 16.1083C31.8681 16.1083 31.8797 16.1424 31.8888 16.1623C31.8888 16.1623 31.9021 16.1931 31.873 16.2089C31.873 16.2089 31.7841 16.2563 31.7051 16.327C31.7051 16.327 31.5355 16.4691 31.4531 16.4533C31.4531 16.4533 31.2004 16.4059 31.1098 16.2546C31.1098 16.2546 31.0183 16.1158 30.8853 15.7923Z" fill="#00679C"/>
<path fill-rule="evenodd" clip-rule="evenodd" d="M31.349 14.985C31.349 14.985 31.2525 14.842 31.2991 14.7905C31.2991 14.7905 31.5103 14.6491 31.8154 14.2026C31.8154 14.2026 32.0383 13.8376 32.1572 13.7835C32.1572 13.7835 32.4074 13.6505 32.6211 13.2248C32.6211 13.2248 32.6693 13.1192 32.9604 13.0751C32.9604 13.0751 33.3653 13.0211 33.4534 13.2024C33.4534 13.2024 33.4983 13.3055 33.5391 13.4185C33.5391 13.4185 33.5557 13.4493 33.5332 13.4734C33.5332 13.4734 33.2298 13.8692 33.253 14.4346C33.253 14.4346 33.2456 14.4928 33.2863 14.4787C33.2863 14.4787 33.4975 14.378 33.9323 14.3406C33.9323 14.3406 34.0172 14.3348 34.0645 14.3764C34.0645 14.3764 34.1959 14.4978 34.1901 14.5685C34.1901 14.5685 34.1843 14.6133 34.1951 14.6408C34.1951 14.6408 34.2267 14.6691 34.1843 14.7356C34.1843 14.7356 33.8118 15.1887 33.3412 15.4781C33.3412 15.4781 32.8265 15.7841 32.6436 15.4872C32.6436 15.4872 32.4598 15.1363 32.4839 15.0025C32.4839 15.0025 32.5363 14.8254 32.4889 14.6641C32.4889 14.6641 32.4557 14.5593 32.3692 14.6641C32.3692 14.6641 32.2245 14.8927 31.931 15.0183C31.931 15.0183 31.6034 15.1671 31.5385 15.1505C31.5385 15.1505 31.4438 15.1031 31.349 14.985Z" fill="#00679C"/>
<path fill-rule="evenodd" clip-rule="evenodd" d="M46.2329 9.26714C46.2329 9.26714 46.1697 9.13494 46.3543 9.12579C46.3543 9.12579 46.5522 9.10833 46.8232 9.14575C46.8232 9.14575 47.4767 9.23139 48.1985 8.90046C48.1985 8.90046 48.3714 8.81815 48.4462 8.69675C48.4462 8.69675 48.4728 8.64936 48.5394 8.63938C48.5394 8.63938 49.02 8.59781 49.1089 8.59614C49.1089 8.59614 49.1746 8.59199 49.2062 8.63107C49.2062 8.63107 49.2661 8.70673 49.3633 8.7666C49.3633 8.7666 49.5072 8.8406 49.5321 9.07673C49.5321 9.07673 49.5396 9.15156 49.4889 9.19646C49.4889 9.19646 49.2112 9.45089 49.0898 9.78015C49.0898 9.78015 49.0175 9.95726 48.7763 10.1011C48.7763 10.1011 48.3315 10.4237 47.8459 10.9234C47.8459 10.9234 47.3745 11.419 47.0036 11.8422C47.0036 11.8422 46.9671 11.8804 46.9829 11.9095C46.9829 11.9095 47.0203 11.9677 47.0419 12.0451C47.0419 12.0451 47.0427 12.1432 47.2281 12.0858C47.2281 12.0858 47.648 11.9603 47.8625 11.7108C47.8625 11.7108 47.9956 11.5603 48.2567 11.4971C48.2567 11.4971 48.8944 11.3475 49.2902 11.552C49.2902 11.552 49.5371 11.6659 49.5113 11.9145C49.5113 11.9145 49.4739 12.1083 49.2694 12.3893C49.2694 12.3893 49.0241 12.6712 48.7231 12.598C48.7231 12.598 48.398 12.5082 47.9216 12.6421C47.9216 12.6421 46.6037 13.0412 46.2711 13.4918C46.2711 13.4918 46.1655 13.629 45.9352 13.6506C45.9352 13.6506 44.5234 13.723 44.0154 13.126C44.0154 13.126 43.9222 13.0129 44.0619 12.9156C44.0619 12.9156 44.244 12.7842 44.8061 12.7984C44.8061 12.7984 45.6375 12.8042 46.321 12.292C46.321 12.292 46.7949 11.848 46.7883 11.7225C46.7883 11.7225 46.7658 11.5778 46.8141 11.4996C46.8141 11.4996 46.8465 11.4514 46.8897 11.4165C46.8897 11.4165 47.0826 11.3192 47.4202 10.5908C47.4202 10.5908 47.683 9.97472 47.8226 9.82505C47.8226 9.82505 47.9324 9.70615 47.8742 9.63714C47.8742 9.63714 47.8542 9.61802 47.806 9.6413C47.806 9.6413 46.5838 10.0246 46.2329 9.26714Z" fill="#00679C"/>
<path fill-rule="evenodd" clip-rule="evenodd" d="M56.2174 8.91391C56.2174 8.91391 56.2589 8.86319 56.318 8.89977C56.318 8.89977 56.4119 8.95881 56.4851 8.99539C56.4851 8.99539 56.5375 9.022 56.545 9.09018C56.545 9.09018 56.5998 9.41279 56.5242 9.76616C56.5242 9.76616 56.5134 9.84266 56.4552 9.86344C56.4552 9.86344 56.2673 9.92497 56.1084 10.0397C56.1084 10.0397 56.0577 10.078 55.9862 10.048C55.9862 10.048 55.943 10.0339 55.8914 10.0164C55.8914 10.0164 55.8158 9.98816 55.7368 10.0231C55.7368 10.0231 55.1074 10.3523 54.0664 10.5569C54.0664 10.5569 53.4768 10.6641 53.3139 10.9103C53.3139 10.9103 53.2682 10.9743 53.3322 11.0441C53.3322 11.0441 53.486 11.1971 53.5783 11.1697C53.5783 11.1697 53.6897 11.1314 53.8385 11.1048C53.8385 11.1048 54.0015 11.104 54.2202 10.8828C54.2202 10.8828 54.5511 10.5577 54.8812 10.5943C54.8812 10.5943 55.0334 10.6134 55.1065 10.6941C55.1065 10.6941 55.1331 10.724 55.1514 10.739C55.1514 10.739 55.1855 10.7606 55.1805 10.8113C55.1805 10.8113 55.1739 10.9793 55.2329 11.1239C55.2329 11.1239 55.2595 11.1755 55.2113 11.2354C55.2113 11.2354 55.0101 11.5796 54.2335 11.7949C54.2335 11.7949 53.9159 11.8798 53.8427 12.071C53.8427 12.071 53.7695 12.2905 53.7271 12.4127C53.7271 12.4127 53.7171 12.4776 53.6406 12.5433C53.6406 12.5433 53.5193 12.6455 53.5575 12.9174C53.5575 12.9174 53.58 13.0405 53.6897 13.0812C53.6897 13.0812 53.7413 13.0995 53.7745 13.0729C53.7745 13.0729 53.9258 12.9482 54.2983 12.8509C54.2983 12.8509 54.6683 12.7536 54.808 12.5566C54.808 12.5566 55.0442 12.1591 55.3352 12.1758C55.3352 12.1758 55.578 12.1882 55.573 12.2988C55.573 12.2988 55.5356 12.4759 55.5971 12.574C55.5971 12.574 55.691 12.7004 55.8191 12.6572C55.8191 12.6572 56.6057 12.3262 57.3989 12.5341C57.3989 12.5341 57.5161 12.5599 57.5078 12.6181C57.5078 12.6181 57.497 12.7046 57.551 12.8467C57.551 12.8467 57.6483 13.0297 57.5436 13.344C57.5436 13.344 57.5352 13.3839 57.4978 13.3872C57.4978 13.3872 57.3082 13.4072 57.1827 13.6358C57.1827 13.6358 57.1187 13.7439 57.1553 13.7821C57.1553 13.7821 57.3714 14.0341 57.26 14.3999C57.26 14.3999 57.2451 14.4615 57.2043 14.4781C57.2043 14.4781 56.8202 14.6751 56.5691 14.8797C56.5691 14.8797 56.1209 15.1682 55.8033 15.3029C55.8033 15.3029 55.765 15.3162 55.7667 15.3594C55.7667 15.3594 55.7725 15.5099 55.9688 15.5715C55.9688 15.5715 56.2714 15.648 56.7453 15.6646C56.7453 15.6646 57.0098 15.6762 57.201 15.7702C57.201 15.7702 57.3897 15.8633 57.4404 15.8949C57.4404 15.8949 57.4795 15.9182 57.4779 15.944C57.4779 15.944 57.487 16.0845 57.4654 16.1851C57.4654 16.1851 57.4646 16.2109 57.4321 16.2175C57.4321 16.2175 57.3681 16.2225 57.3448 16.3073C57.3448 16.3073 57.3448 16.3356 57.2983 16.3239C57.2983 16.3239 57.2276 16.3106 57.1669 16.3131C57.1669 16.3131 55.9846 16.2824 55.2728 15.9648C55.2728 15.9648 55.1373 15.8991 54.9444 15.6563C54.9444 15.6563 54.8338 15.5049 54.8878 15.352C54.8878 15.352 54.9236 15.2331 54.9261 15.1998C54.9261 15.1998 54.9261 15.1632 54.9876 15.1341C54.9876 15.1341 55.3277 14.982 55.4599 14.8672C55.4599 14.8672 55.5572 14.7799 55.627 14.5687C55.627 14.5687 55.6412 14.4872 55.7817 14.4307C55.7817 14.4307 55.9405 14.3833 56.0527 14.2977C56.0527 14.2977 56.0985 14.2702 56.0469 14.2062C56.0469 14.2062 55.8814 14.0665 56.0336 13.8038C56.0336 13.8038 56.0486 13.7713 56.0943 13.7697C56.0943 13.7697 56.5059 13.7846 56.7803 13.1652C56.7803 13.1652 56.8152 13.092 56.7611 13.0039C56.7611 13.0039 56.7445 12.9773 56.7054 12.9848C56.7054 12.9848 56.4585 13.033 56.1824 13.1486C56.1824 13.1486 55.8881 13.2949 55.6112 13.1785C55.6112 13.1785 55.4823 13.0987 55.4391 12.9939C55.4391 12.9939 55.4142 12.9124 55.2845 12.8975C55.2845 12.8975 55.1348 12.8817 55.0267 12.8409C55.0267 12.8409 54.9801 12.821 54.9527 12.8567C54.9527 12.8567 54.5436 13.2808 53.269 13.8254C53.269 13.8254 53.2282 13.8337 53.2141 13.8836C53.2141 13.8836 53.0877 14.291 53.0071 14.4797C53.0071 14.4797 52.9846 14.528 52.9422 14.5404C52.9422 14.5404 52.8507 14.5712 52.761 14.6677C52.761 14.6677 52.6412 14.8331 52.366 14.7566C52.366 14.7566 52.3153 14.7442 52.3103 14.6918C52.3103 14.6918 52.3253 14.5504 52.1058 14.4797C52.1058 14.4797 51.7474 14.3384 51.3965 14.6344C51.3965 14.6344 51.1837 14.8231 50.9824 14.8838C50.9824 14.8838 50.8494 14.9196 50.7205 14.7915C50.7205 14.7915 50.59 14.6602 50.5243 14.3941C50.5243 14.3941 50.4994 14.3168 50.595 14.1513C50.595 14.1513 50.8411 13.6416 51.8821 13.4504C51.8821 13.4504 52.4891 13.3273 52.7269 13.2201C52.7269 13.2201 52.8017 13.1918 52.8241 13.1519C52.8241 13.1519 53.1542 12.342 53.2806 12.1267C53.2806 12.1267 53.3114 12.076 53.2956 12.0494C53.2956 12.0494 53.2474 11.9521 53.2274 11.9039C53.2274 11.9039 53.2166 11.8673 53.1684 11.8781C53.1684 11.8781 52.7851 11.9829 52.4034 11.9138C52.4034 11.9138 52.2313 11.8847 52.05 11.8141C52.05 11.8141 51.9669 11.785 51.9736 11.7351C51.9736 11.7351 51.9769 11.6686 51.9203 11.5796C51.9203 11.5796 51.8405 11.4757 51.922 11.3052C51.922 11.3052 51.937 11.262 52.0051 11.237C52.0051 11.237 52.509 11.0258 52.9555 10.6409C52.9555 10.6409 53.6257 10.0464 54.2468 9.95657C54.2468 9.95657 55.4574 9.73041 56.2174 8.91391Z" fill="#00679C"/>
<path fill-rule="evenodd" clip-rule="evenodd" d="M56.9543 10.6922C56.9543 10.6922 57.0258 10.5965 57.1796 10.5899C57.1796 10.5899 57.3975 10.5774 57.3925 10.6398C57.3925 10.6398 57.3734 10.7803 57.4773 10.8651C57.4773 10.8651 57.612 10.9724 57.7957 11.0098C57.7957 11.0098 58.0543 11.0954 58.8991 10.5708C58.8991 10.5708 58.9448 10.5516 58.9157 10.4868C58.9157 10.4868 58.8434 10.3737 58.9257 10.1916C58.9257 10.1916 58.9407 10.1525 58.9706 10.1542C58.9706 10.1542 59.3755 10.1334 59.6815 10.0885C59.6815 10.0885 59.709 10.086 59.7381 10.1093C59.7381 10.1093 59.7846 10.1484 59.8628 10.2057C59.8628 10.2057 60.1255 10.3654 59.9983 10.6365C59.9983 10.6365 59.9892 10.6606 59.9517 10.6672C59.9517 10.6672 59.2608 10.6531 58.4651 11.1678C58.4651 11.1678 58.288 11.2833 58.3986 11.3989C58.3986 11.3989 58.4983 11.4746 58.4626 11.6259C58.4626 11.6259 58.4393 11.714 58.4218 11.7648C58.4218 11.7648 58.4152 11.8105 58.3562 11.8271C58.3562 11.8271 58.2048 11.8521 58.0776 11.8812C58.0776 11.8812 57.7434 12.0084 57.1173 11.739C57.1173 11.739 57.0832 11.7265 57.0732 11.6924C57.0732 11.6924 57.0358 11.5394 56.8387 11.3781C56.8387 11.3781 56.7805 11.3291 56.7814 11.2509C56.7814 11.2509 56.7639 10.9624 56.9543 10.6922Z" fill="#00679C"/>
<path fill-rule="evenodd" clip-rule="evenodd" d="M65.7819 14.5557C65.7819 14.5557 65.8259 14.3686 65.9997 14.4468C65.9997 14.4468 66.3506 14.6879 66.3464 14.8425C66.3464 14.8425 66.3456 15.4412 66.4113 15.7272C66.4113 15.7272 66.5186 16.0648 66.2068 16.3608C66.2068 16.3608 66.0163 16.5263 65.8002 16.621C65.8002 16.621 65.5083 16.7591 65.3321 16.8846C65.3321 16.8846 65.1716 16.9885 64.9338 17.0476C64.9338 17.0476 64.5355 17.144 64.5131 17.3137C64.5131 17.3137 64.4923 17.4325 64.6004 17.5465C64.6004 17.5465 64.7716 17.7369 65.0543 17.4791C65.0543 17.4791 65.2306 17.2887 65.4011 17.4691C65.4011 17.4691 65.6189 17.7177 65.4401 18.0063C65.4401 18.0063 65.3678 18.1318 65.2813 18.1252C65.2813 18.1252 65.1234 18.1185 64.9679 18.2233C64.9679 18.2233 64.7741 18.3438 64.5555 18.1435C64.5555 18.1435 64.2437 17.8416 63.3482 17.968C63.3482 17.968 63.0305 18.0038 62.8011 18.1243C62.8011 18.1243 62.3978 18.2906 61.5896 18.2939C61.5896 18.2939 61.1282 18.3247 60.8297 18.4079C60.8297 18.4079 60.1745 18.6066 59.3954 18.2199C59.3954 18.2199 59.1676 18.106 58.9697 17.899C58.9697 17.899 58.9397 17.8707 58.9331 17.8433C58.9331 17.8433 58.8973 17.7144 58.9464 17.5348C58.9464 17.5348 58.9622 17.4799 59.0196 17.5132C59.0196 17.5132 59.1559 17.5872 59.2806 17.6803C59.2806 17.6803 59.5949 17.9481 60.7739 17.7294C60.7739 17.7294 61.3468 17.613 61.6304 17.5248C61.6304 17.5248 62.0311 17.4176 62.2398 17.3893C62.2398 17.3893 62.3022 17.3793 62.2955 17.3278C62.2955 17.3278 62.2739 17.149 62.145 17.1208C62.145 17.1208 61.7958 17.0675 61.3435 16.7225C61.3435 16.7225 61.1731 16.6027 60.7557 16.1729C60.7557 16.1729 60.7365 16.1546 60.7515 16.1288C60.7515 16.1288 60.8105 16.0224 60.8371 15.9891C60.8371 15.9891 60.8463 15.9758 60.8679 15.9766C60.8679 15.9766 61.1365 15.9983 61.287 16.1504C61.287 16.1504 61.5555 16.4522 61.8715 16.5761C61.8715 16.5761 62.8676 17.0975 63.2151 16.9636C63.2151 16.9636 63.5028 16.8838 63.9801 16.562C63.9801 16.562 64.1564 16.4539 64.3759 16.4115C64.3759 16.4115 65.036 16.2336 65.4909 15.8129C65.4909 15.8129 65.574 15.728 65.5765 15.6291C65.5765 15.6291 65.5732 15.3555 65.574 15.1992C65.574 15.1992 65.5723 15.1069 65.6671 15.0338C65.6671 15.0338 65.7569 14.9689 65.7578 14.8409C65.7578 14.8409 65.7478 14.6688 65.7819 14.5557Z" fill="#00679C"/>
<path fill-rule="evenodd" clip-rule="evenodd" d="M63.1136 19.0848C63.1136 19.0848 63.0729 18.9825 63.1577 18.9127C63.1577 18.9127 63.2533 18.8187 63.3232 18.8603C63.3232 18.8603 63.7215 19.1455 63.8088 19.4748C63.8088 19.4748 63.8736 19.6951 63.7273 19.947C63.7273 19.947 63.541 20.2455 63.3647 20.2855C63.3647 20.2855 63.2026 20.3254 62.9906 20.1715C62.9906 20.1715 62.7761 20.0019 62.648 19.8049C62.648 19.8049 62.6206 19.7608 62.6439 19.7267C62.6439 19.7267 62.7295 19.5962 62.7461 19.5654C62.7461 19.5654 62.7644 19.5305 62.7927 19.5396C62.7927 19.5396 62.9864 19.6219 63.107 19.4947C63.107 19.4947 63.2434 19.38 63.1136 19.0848Z" fill="#00679C"/>
<path fill-rule="evenodd" clip-rule="evenodd" d="M69.8648 20.1533C69.8648 20.1533 69.8948 20.0693 69.9895 20.0693C69.9895 20.0693 70.1758 20.0668 70.2348 20.2472C70.2348 20.2472 70.2481 20.2971 70.2348 20.3187C70.2348 20.3187 70.1691 20.4185 70.15 20.4759C70.15 20.4759 70.0985 20.5773 70.1824 20.7478C70.1824 20.7478 70.3063 20.9706 70.3595 20.998C70.3595 20.998 70.3895 21.0114 70.4701 20.9897C70.4701 20.9897 70.4967 20.9872 70.4984 20.9482C70.4984 20.9482 70.5026 20.8434 70.5815 20.8076C70.5815 20.8076 70.6555 20.7702 70.7803 20.7453C70.7803 20.7453 70.9025 20.7203 70.9491 20.5898C70.9491 20.5898 71.0704 20.2073 71.2243 20.2106C71.2243 20.2106 71.3274 20.214 71.3565 20.5216C71.3565 20.5216 71.3714 20.7835 71.27 21.0438C71.27 21.0438 71.1727 21.329 71.2758 21.5144C71.2758 21.5144 71.3166 21.5859 71.3939 21.6258C71.3939 21.6258 71.551 21.7123 71.6533 21.7746C71.6533 21.7746 71.8304 21.8994 71.9784 21.8279C71.9784 21.8279 72.01 21.8145 72.015 21.7921C72.015 21.7921 72.0233 21.7464 72.0225 21.7023C72.0225 21.7023 72.02 21.6765 71.995 21.6641C71.995 21.6641 71.7764 21.5892 71.5926 21.447C71.5926 21.447 71.5061 21.3805 71.5336 21.319C71.5336 21.319 71.5693 21.23 71.7356 21.1602C71.7356 21.1602 71.788 21.1427 71.7681 21.0978C71.7681 21.0978 71.6982 20.9349 71.813 20.855C71.813 20.855 71.9219 20.7777 71.9676 20.85C71.9676 20.85 72.2229 21.2857 72.4108 21.3489C72.4108 21.3489 72.5754 21.398 72.6403 21.4745C72.6403 21.4745 72.7034 21.5751 72.7982 21.5934C72.7982 21.5934 73.0618 21.6757 73.5183 21.6383C73.5183 21.6383 74.3373 21.5817 74.4429 21.9118C74.4429 21.9118 74.4687 22.0183 74.393 22.1471C74.393 22.1471 74.3182 22.2843 74.0945 22.2785C74.0945 22.2785 73.8442 22.2752 73.3819 22.1621C73.3819 22.1621 73.071 22.0831 73.0186 22.1771C73.0186 22.1771 72.962 22.2852 73.0543 22.4556C73.0543 22.4556 73.1641 22.6901 73.6696 22.9453C73.6696 22.9453 73.7237 22.9728 73.7611 22.972C73.7611 22.972 73.8525 22.9653 73.9357 23.085C73.9357 23.085 74.1061 23.3519 74.225 23.5648C74.225 23.5648 74.2741 23.6363 74.25 23.687C74.25 23.687 74.1751 23.8242 74.0213 23.9373C74.0213 23.9373 73.9822 23.9739 73.9174 23.9298C73.9174 23.9298 73.6829 23.8067 73.2971 23.8167C73.2971 23.8167 72.9254 23.8217 72.6087 23.8184C72.6087 23.8184 71.8836 23.8425 71.4928 23.0742C71.4928 23.0742 71.4712 23.0302 71.4912 23.0144C71.4912 23.0144 71.5352 22.9636 71.6275 23.0011C71.6275 23.0011 71.9136 23.1815 72.2769 23.1216C72.2769 23.1216 72.5845 23.0302 72.7101 23.2231C72.7101 23.2231 72.7567 23.3262 72.8631 23.3469C72.8631 23.3469 73.2173 23.4534 73.5815 23.411C73.5815 23.411 73.6139 23.411 73.6089 23.3735C73.6089 23.3735 73.5964 23.2871 73.5648 23.2189C73.5648 23.2189 73.3844 22.8522 72.3625 22.4539C72.3625 22.4539 71.5627 22.1779 71.5219 22.434C71.5219 22.434 71.5419 22.7117 71.4097 22.8531C71.4097 22.8531 71.3473 22.9287 71.295 22.9071C71.295 22.9071 71.1968 22.8597 71.0946 22.7508C71.0946 22.7508 71.0571 22.7067 71.0596 22.6585C71.0596 22.6585 71.117 22.4747 70.9391 22.2161C70.9391 22.2161 70.8958 22.1505 70.8168 22.1455C70.8168 22.1455 70.4469 22.1879 70.1891 21.8985C70.1891 21.8985 70.1558 21.8678 70.1833 21.8436C70.1833 21.8436 70.229 21.8021 70.2855 21.7505C70.2855 21.7505 70.308 21.7272 70.3388 21.7364C70.3388 21.7364 70.4061 21.7788 70.4818 21.7397C70.4818 21.7397 70.7229 21.6225 70.6206 21.4886C70.6206 21.4886 70.5466 21.4038 70.0319 21.309C70.0319 21.309 69.5805 21.2541 69.3102 20.8284C69.3102 20.8284 69.2953 20.801 69.3069 20.7727C69.3069 20.7727 69.3427 20.702 69.3776 20.5657C69.3776 20.5657 69.3851 20.5266 69.4225 20.5175C69.4225 20.5175 69.5988 20.4684 69.7043 20.4069C69.7043 20.4069 69.7975 20.3653 69.8648 20.1533Z" fill="#00679C"/>
<path fill-rule="evenodd" clip-rule="evenodd" d="M66.4032 20.0097C66.4032 20.0097 66.6227 19.618 67.0076 20.1568C67.0076 20.1568 67.302 20.812 68.6814 21.5761C68.6814 21.5761 70.8025 22.8383 71.4136 23.4128C71.4136 23.4128 71.6364 23.6349 71.6896 23.8253C71.6896 23.8253 71.737 24.0739 71.5583 24.1978C71.5583 24.1978 71.5308 24.2185 71.4934 24.1994C71.4934 24.1994 71.2789 24.1096 70.9821 24.0506C70.9821 24.0506 70.2612 23.9275 69.8895 23.3937C69.8895 23.3937 69.8729 23.3721 69.8937 23.3347C69.8937 23.3347 70.0059 23.1119 70.1423 23.1942C70.1423 23.1942 70.3934 23.4178 70.6894 23.3954C70.6894 23.3954 70.7193 23.3962 70.7201 23.368C70.7201 23.368 70.7135 23.3322 70.6894 23.2765C70.6894 23.2765 70.6752 23.2491 70.6495 23.2382C70.6495 23.2382 69.6176 22.5074 68.876 22.2338C68.876 22.2338 68.3056 22.0359 67.3095 21.4789C67.3095 21.4789 67.1066 21.3691 66.9519 21.34C66.9519 21.34 66.8788 21.3267 66.838 21.2585C66.838 21.2585 66.6992 21.0149 66.5595 20.8137C66.5595 20.8137 66.2128 20.373 66.4032 20.0097Z" fill="#00679C"/>
<path fill-rule="evenodd" clip-rule="evenodd" d="M67.8798 22.4406C67.8798 22.4406 67.9763 22.3475 68.0594 22.4556C68.0594 22.4556 68.2432 22.7092 68.718 22.962C68.718 22.962 69.3091 23.3162 70.0134 23.9381C70.0134 23.9381 70.5289 24.4461 70.9571 24.6498C70.9571 24.6498 71.0328 24.6723 71.0785 24.7363C71.0785 24.7363 71.3404 25.0697 71.3379 25.2252C71.3379 25.2252 71.3213 25.4979 71.0669 25.5195C71.0669 25.5195 70.9895 25.5237 70.9455 25.5437C70.9455 25.5437 70.8897 25.5728 70.8024 25.4971C70.8024 25.4971 70.2894 25.0922 69.5602 24.7529C69.5602 24.7529 69.2634 24.6166 68.9425 24.2116C68.9425 24.2116 68.9009 24.1501 68.8443 24.146C68.8443 24.146 68.6481 24.1235 68.5741 24.2175C68.5741 24.2175 68.4968 24.3106 68.2773 24.4594C68.2773 24.4594 68.1351 24.5584 68.017 24.6515C68.017 24.6515 67.7801 24.8527 67.4333 25.0531C67.4333 25.0531 67.3028 25.1196 67.2188 25.2393C67.2188 25.2393 67.0966 25.4555 66.9353 25.4189C66.9353 25.4189 66.6809 25.3308 66.5395 25.0714C66.5395 25.0714 66.4007 24.8527 66.4281 24.2973C66.4281 24.2973 66.4713 23.9605 66.2551 23.4899C66.2551 23.4899 65.9932 23.0044 66.1379 22.7233C66.1379 22.7233 66.2385 22.5446 66.3316 22.6593C66.3316 22.6593 66.4306 22.7907 66.4522 22.9636C66.4522 22.9636 66.4697 23.1258 66.626 23.3162C66.626 23.3162 66.7898 23.5149 66.843 23.7577C66.843 23.7577 67.07 24.486 67.4308 24.3422C67.4308 24.3422 67.6013 24.2599 68.052 24.1127C68.052 24.1127 68.3821 24.0237 68.417 23.7227C68.417 23.7227 68.4269 23.6712 68.3779 23.6305C68.3779 23.6305 68.101 23.396 67.9056 23.1075C67.9056 23.1075 67.6179 22.7042 67.8798 22.4406Z" fill="#00679C"/>
<path fill-rule="evenodd" clip-rule="evenodd" d="M38.1352 5.95753C38.1352 5.95753 38.136 5.79124 38.3173 5.73553C38.3173 5.73553 38.4345 5.69562 38.4728 5.76463C38.4728 5.76463 38.5301 5.87356 38.6025 5.92261C38.6025 5.92261 38.6873 5.97001 38.7048 6.08808C38.7048 6.08808 38.8128 6.70336 38.6898 6.78401C38.6898 6.78401 38.4295 6.94449 38.0313 7.3993C38.0313 7.3993 37.5889 7.92146 37.0327 8.12018C37.0327 8.12018 36.9795 8.1393 36.9778 8.10438C36.9778 8.10438 36.957 7.95389 36.9362 7.89901C36.9362 7.89901 36.9229 7.87656 36.9495 7.84829C36.9495 7.84829 37.3386 7.44836 37.4991 7.09748C37.4991 7.09748 37.7519 6.62021 38.0047 6.31174C38.0047 6.31174 38.1418 6.14046 38.1352 5.95753Z" fill="#00679C"/>
<path fill-rule="evenodd" clip-rule="evenodd" d="M36.6542 10.0701C36.6542 10.0701 36.6684 9.97693 36.749 9.9603C36.749 9.9603 36.8654 9.92953 36.9228 10.08C36.9228 10.08 36.9852 10.3029 37.0151 10.3927C37.0151 10.3927 37.1007 10.5199 37.1224 10.7469C37.1224 10.7469 37.2014 11.363 37.267 11.7347C37.267 11.7347 37.4209 12.3117 36.7765 12.4929C36.7765 12.4929 36.68 12.5154 36.6459 12.4772C36.6459 12.4772 36.4056 12.2477 36.483 11.8569C36.483 11.8569 36.552 11.6349 36.5536 11.4046C36.5536 11.4046 36.5553 10.6305 36.6542 10.0701Z" fill="#00679C"/>
<path fill-rule="evenodd" clip-rule="evenodd" d="M37.6782 12.1584C37.6782 12.1584 37.7987 11.968 37.9002 12.0221C37.9002 12.0221 38.0049 12.0977 38.0399 12.3031C38.0399 12.3031 38.0565 12.3622 38.0207 12.422C38.0207 12.422 37.9018 12.7322 37.8287 13.1238C37.8287 13.1238 37.7937 13.3566 37.7114 13.6285C37.7114 13.6285 37.6965 13.6651 37.7314 13.6775C37.7314 13.6775 37.7621 13.6942 37.8262 13.6892C37.8262 13.6892 37.9401 13.68 38.0573 13.6576C38.0573 13.6576 38.2486 13.6268 38.4797 13.6335C38.4797 13.6335 38.8863 13.631 39.4916 13.4281C39.4916 13.4281 40.0595 13.2327 40.3513 13.0714C40.3513 13.0714 40.3821 13.0581 40.3738 13.0207C40.3738 13.0207 40.2765 12.728 40.3738 12.6781C40.3738 12.6781 40.6423 12.57 40.7164 12.6016C40.7164 12.6016 40.7704 12.6291 40.8444 12.6532C40.8444 12.6532 41.0589 12.7155 41.1811 12.7297C41.1811 12.7297 41.3799 12.7604 41.4713 12.9325C41.4713 12.9325 41.5129 13.0174 41.5245 13.1105C41.5245 13.1105 41.5287 13.1387 41.5062 13.1579C41.5062 13.1579 41.4131 13.2535 41.3366 13.3882C41.3366 13.3882 41.2369 13.6218 40.5617 13.8538C40.5617 13.8538 38.9628 14.297 38.276 14.1215C38.276 14.1215 37.8952 13.9569 37.6632 13.9544C37.6632 13.9544 37.6141 13.9494 37.5934 13.9835C37.5934 13.9835 37.4246 14.6221 37.013 14.9239C37.013 14.9239 36.9124 15.0112 36.7802 15.0037C36.7802 15.0037 36.7037 15.0012 36.6546 14.9497C36.6546 14.9497 36.6089 14.9073 36.5923 14.8391C36.5923 14.8391 36.5091 14.5406 36.5557 14.4749C36.5557 14.4749 36.6787 14.2837 36.7444 14.1232C36.7444 14.1232 37.4013 12.506 37.6782 12.1584Z" fill="#00679C"/>
<path fill-rule="evenodd" clip-rule="evenodd" d="M38.8155 11.0348C38.8155 11.0348 38.67 10.8826 38.3208 10.7746C38.3208 10.7746 38.009 10.6781 37.8436 10.4819C37.8436 10.4819 37.8153 10.4536 37.8485 10.4245C37.8485 10.4245 38.152 10.0753 38.0124 9.51821C38.0124 9.51821 37.851 8.89294 37.4669 8.75076C37.4669 8.75076 37.422 8.74078 37.4702 8.71002C37.4702 8.71002 37.6049 8.62105 37.93 8.59943C37.93 8.59943 38.1537 8.59445 38.369 8.38991C38.369 8.38991 38.9652 7.92844 39.2105 7.679C39.2105 7.679 39.2454 7.6366 39.2845 7.64242C39.2845 7.64242 39.3643 7.66819 39.3502 7.69397C39.3502 7.69397 39.124 8.30759 39.0218 9.52735C39.0218 9.52735 38.9394 10.151 38.9519 10.5642C38.9519 10.5642 38.9536 10.8253 38.8762 11.0157C38.8762 11.0157 38.8613 11.0664 38.8155 11.0348ZM42.2728 11.4023C42.0691 11.1853 41.8346 11.0622 41.8346 11.0622C41.512 10.8993 41.1129 11.0864 41.1129 11.0864C40.6373 11.315 40.0894 12.0118 40.0894 12.0118C39.9705 12.1614 39.7834 12.2388 39.7834 12.2388C39.6345 12.3119 39.45 12.4367 39.45 12.4367C39.297 12.5198 39.2629 12.4649 39.2629 12.4649C39.2379 12.43 39.3119 12.3568 39.3119 12.3568C39.7069 11.8205 39.5639 11.5736 39.5639 11.5736C39.3444 11.0864 39.5614 10.1077 39.5614 10.1077C39.9547 8.40986 39.933 7.7846 39.933 7.7846C39.9197 7.56343 39.9838 7.50107 39.9838 7.50107C40.0511 7.42707 39.894 7.14936 39.894 7.14936C39.8698 7.12026 39.8324 7.12192 39.8324 7.12192C39.5356 7.11111 39.2196 7.14603 39.2196 7.14603C38.9893 7.17181 38.8422 7.29736 38.8422 7.29736C38.483 7.58837 37.9625 7.99828 37.9625 7.99828C37.8203 8.11552 37.5476 8.26851 37.5476 8.26851C37.0304 8.5986 37.1019 8.72416 37.1019 8.72416C37.1809 9.02598 37.3156 9.29787 37.3156 9.29787C37.4877 9.69281 37.4686 9.91648 37.4686 9.91648C37.4644 10.1742 37.3023 10.3289 37.3023 10.3289C37.2757 10.3597 37.2815 10.3946 37.2815 10.3946C37.2998 10.5584 37.4087 11.0207 37.4087 11.0207C37.4561 11.2111 37.6673 11.2161 37.6673 11.2161C38.1038 11.256 38.2202 11.557 38.2202 11.557C38.2776 11.7241 38.7806 11.5486 38.7806 11.5486C38.8239 11.5478 38.8322 11.6152 38.8322 11.6152C38.8471 11.7781 38.68 11.907 38.68 11.907C38.5195 12.0442 38.557 12.129 38.557 12.129C38.6268 12.3718 38.6384 12.6761 38.6384 12.6761C38.6335 12.736 38.695 12.7751 38.695 12.7751C38.9295 12.9463 39.1265 13.1259 39.1265 13.1259C39.1814 13.1708 39.2878 13.1792 39.2878 13.1792C39.7185 13.2074 39.9372 12.9688 39.9372 12.9688C40.5392 12.3676 41.0455 11.4755 41.0455 11.4755C41.063 11.4248 41.1096 11.4189 41.1096 11.4189C41.3573 11.3724 41.3948 11.4597 41.3948 11.4597C41.4496 11.6019 41.4588 11.7598 41.4588 11.7598C41.4538 11.8372 41.5053 11.8305 41.5053 11.8305C41.6874 11.8139 41.7939 11.9519 41.7939 11.9519C41.8155 11.9877 41.8554 11.9777 41.8554 11.9777C42.2786 11.8463 42.405 11.6542 42.405 11.6542C42.4582 11.5944 42.2728 11.4023 42.2728 11.4023Z" fill="#00679C"/>
</svg>
