<?xml version="1.0" encoding="UTF-8"?><svg id="a" xmlns="http://www.w3.org/2000/svg" xmlns:xlink="http://www.w3.org/1999/xlink" viewBox="0 0 184.4464 110.7596"><defs><radialGradient id="b" cx="-420.854" cy="2114.6141" fx="-445.834" fy="2103.3341" r="119.18" gradientTransform="translate(760.1303 -3459.4963) scale(1.67)" gradientUnits="userSpaceOnUse"><stop offset="0" stop-color="#d67235"/><stop offset=".09" stop-color="#d56c33"/><stop offset=".22" stop-color="#d25b2f"/><stop offset=".26" stop-color="#cf562e"/><stop offset=".37" stop-color="#c73a36"/><stop offset=".46" stop-color="#c2223a"/><stop offset=".53" stop-color="#c11a3b"/><stop offset=".59" stop-color="#b71d43"/><stop offset=".74" stop-color="#9f2353"/></radialGradient></defs><path d="M174.3261,4.2207c-.85-3.02-3.89-4.78-7.06-4.06L35.2961,34.4207c-3.04.79-7.08,3.48-8.97,5.98L.9761,73.8507c-1.9,2.5-.94,5.09,2.13,5.76l143.45,31.02c3.07.66,6.22-1.28,7-4.32l22.16-86.53c.78-3.04.72-8-.12-11.03,0,0-1.27-4.53-1.27-4.53Z" fill="#fff" stroke-width="0"/><path d="M183.3961,8.7107c-.87-2.94-2.2-5.29-5.41-6.32-2.58-.83-5.07-1.53-7.8-2.19h0c1.96.5,3.56,1.97,4.13,4.03l1.27,4.54c.85,3.02.9,7.99.12,11.03l-22.16,86.53c-.03.13-.08.26-.12.38l29.72-81.89c.64-2.11,1.3-3.27,1.3-6.92.02-3.75-1.05-9.19-1.05-9.19Z" fill="#971e42" stroke-width="0"/><path id="c" d="M175.5961,8.7607l-1.27-4.54c-.85-3.02-3.89-4.78-7.06-4.06L35.2961,34.4207c-3.04.79-7.08,3.48-8.97,5.98L.9761,73.8507c-1.9,2.5-.94,5.09,2.13,5.76l28.65,6.2c-1.08-.72-2.08-1.54-2.96-2.47-1.73-1.83-3.02-4.02-3.87-6.56-.85-2.55-1.14-5.35-.88-8.42.27-3.14,1.07-5.98,2.39-8.53s3.02-4.72,5.1-6.51,4.47-3.17,7.14-4.13c2.68-.96,5.52-1.44,8.52-1.44,2.78,0,5.47.49,8.07,1.47,2.6.98,4.65,2.41,6.16,4.29l-7.01,6.42c-.78-1.22-1.87-2.12-3.27-2.71-1.39-.59-2.85-.89-4.37-.89-1.67,0-3.22.3-4.67.91-1.44.61-2.71,1.45-3.81,2.52s-1.98,2.33-2.67,3.79c-.68,1.46-1.1,3.06-1.25,4.79-.15,1.77-.02,3.4.41,4.87.43,1.48,1.08,2.74,1.97,3.8.89,1.05,2,1.87,3.32,2.46s2.79.89,4.43.89c1.89,0,3.57-.37,5.05-1.11,1.47-.74,2.69-1.7,3.64-2.88l6.07,6.2c-1.92,1.99-4.2,3.57-6.86,4.74-1.91.84-4,1.36-6.26,1.6l48.09,10.4,1.37-6.26c.43.15.91.27,1.44.36s1.02.14,1.46.14c1.41,0,2.46-.32,3.14-.97s1.3-1.56,1.85-2.74l1.09-2.27-9.19-27.14h10.12l4.62,17.72h.17l7.05-17.72h9.67l-15.18,31.74c-.68,1.44-1.41,2.72-2.2,3.85-.78,1.13-1.68,2.09-2.7,2.88s-2.18,1.39-3.49,1.8c-.43.13-.89.23-1.37.32l44.46,9.61c3.07.66,6.22-1.28,7-4.32l22.16-86.53c.79-3.03.74-8-.11-11.02h0ZM70.1561,88.0207h-9.12l2.41-27.58h9.12l-2.41,27.58ZM74.0061,51.6407c-.06.7-.26,1.36-.59,1.97s-.75,1.14-1.25,1.58-1.09.79-1.76,1.05-1.36.39-2.06.39c-1.48,0-2.68-.49-3.6-1.47-.91-.98-1.31-2.15-1.19-3.52.06-.66.24-1.3.56-1.91.31-.61.73-1.14,1.25-1.58s1.11-.8,1.76-1.08,1.35-.42,2.09-.42c.7,0,1.37.13,1.99.39.63.26,1.15.61,1.58,1.05.42.44.75.97.97,1.58.23.61.31,1.26.25,1.97ZM94.0861,67.2007h-6.51l-.92,10.56c-.11,1.3.05,2.27.5,2.92.44.65,1.31.97,2.61.97.44,0,.92-.04,1.43-.11s.93-.18,1.28-.33l-.47,6.64c-.65.22-1.46.42-2.44.58-.98.17-1.95.25-2.91.25-1.85,0-3.39-.23-4.61-.69s-2.17-1.13-2.86-2c-.68-.87-1.14-1.91-1.37-3.11s-.28-2.54-.15-4.03l1.02-11.66h-4.45l.59-6.76h4.39l.63-7.25h8.95l-.63,7.25h6.51l-.59,6.77h0ZM161.7561,73.2307c-.21,2.36-.79,4.51-1.76,6.45-.97,1.94-2.25,3.6-3.85,4.98-1.61,1.39-3.49,2.47-5.65,3.24-2.16.78-4.52,1.16-7.08,1.16s-4.9-.39-6.9-1.16c-2.01-.77-3.67-1.85-5-3.24-1.32-1.38-2.29-3.04-2.9-4.98s-.81-4.09-.6-6.45l2.14-24.43h9.45l-2.07,23.65c-.09,1.07-.04,2.09.15,3.05.19.96.55,1.82,1.05,2.57.51.76,1.22,1.36,2.12,1.8s2.03.66,3.36.66,2.49-.22,3.48-.66c.98-.44,1.8-1.04,2.46-1.8.66-.75,1.16-1.61,1.5-2.57s.56-1.97.66-3.05l2.07-23.65h9.51l-2.14,24.43Z" fill="url(#b)" stroke-width="0"/></svg>